<?xml version="1.0" standalone="no" ?>
<!DOCTYPE svg PUBLIC "-//W3C//DTD SVG 20010904//EN"
  "http://www.w3.org/TR/2001/REC-SVG-20010904/DTD/svg10.dtd">
<svg
  version="1.0"
  xmlns="http://www.w3.org/2000/svg"
  viewBox="0 0 2600.000000 2600.000000"
  preserveAspectRatio="xMidYMid meet"
>
<metadata>
Created by potrace 1.15, written by Peter Selinger 2001-2017
</metadata>
<g
    transform="translate(0.000000,2600.000000) scale(0.100000,-0.100000)"
    fill="#000000"
    stroke="none"
  >
<path
      d="M7865 20104 c-243 -24 -418 -53 -607 -100 -550 -138 -1056 -414
-1471 -802 -609 -568 -969 -1293 -1068 -2147 -17 -142 -17 -538 0 -680 79
-680 320 -1273 726 -1779 95 -119 246 -282 258 -278 5 2 6 -5 3 -15 -16 -41
-78 -258 -115 -403 -414 -1622 -302 -3357 319 -4909 400 -1002 988 -1891 1759
-2661 1121 -1120 2521 -1862 4081 -2165 522 -101 938 -140 1505 -140 380 0
560 9 855 41 2132 231 4055 1298 5382 2985 851 1082 1405 2383 1602 3759 57
400 76 678 76 1125 0 447 -19 725 -76 1125 -52 359 -145 792 -242 1118 l-40
133 55 52 c73 69 231 257 320 382 716 1005 828 2332 289 3450 -174 360 -395
666 -692 955 -534 520 -1170 828 -1935 936 -158 23 -672 26 -819 6 -283 -40
-495 -89 -734 -172 -369 -128 -684 -303 -1004 -558 l-92 -74 -113 42 c-740
279 -1461 438 -2277 502 -216 17 -895 17 -1105 0 -801 -65 -1510 -218 -2198
-474 l-188 -70 -32 25 c-163 129 -219 170 -329 244 -411 272 -914 456 -1443
528 -114 16 -555 28 -650 19z m615 -859 c314 -49 640 -163 899 -314 60 -35 71
-45 60 -55 -8 -7 -79 -50 -159 -96 -565 -323 -1126 -755 -1616 -1245 -641
-641 -1146 -1350 -1534 -2158 -47 -97 -88 -177 -91 -177 -16 0 -152 221 -225
366 -183 364 -274 746 -274 1149 0 1171 795 2192 1931 2480 94 24 299 60 389
68 106 10 518 -2 620 -18z m10356 -4 c544 -93 1004 -331 1389 -716 407 -406
646 -888 731 -1470 13 -86 18 -183 18 -340 0 -229 -13 -361 -55 -550 -49 -220
-133 -451 -236 -645 -56 -106 -192 -320 -202 -320 -3 0 -49 89 -101 197 -485
1004 -1189 1901 -2062 2629 -351 293 -821 617 -1181 814 l-79 43 47 29 c74 46
292 153 391 191 183 72 387 123 604 152 160 21 578 14 736 -14z m-5996 -571
l0 -330 -45 0 c-25 0 -112 -7 -193 -15 -1249 -128 -2425 -614 -3392 -1404
-132 -108 -346 -299 -427 -383 l-63 -63 294 -294 294 -294 124 115 c920 861
2044 1373 3276 1491 l132 13 0 -376 0 -377 -117 -12 c-65 -7 -183 -24 -263
-37 -946 -160 -1772 -566 -2488 -1225 l-134 -122 294 -294 c161 -161 296 -293
301 -293 4 0 53 42 107 94 385 364 892 670 1410 850 242 85 554 156 838 191
l52 7 0 -536 0 -536 420 0 420 0 0 536 0 536 53 -7 c473 -58 888 -183 1307
-392 371 -185 695 -411 965 -675 l80 -78 298 298 297 297 -98 92 c-323 299
-596 501 -962 710 -528 302 -1196 516 -1827 584 l-113 12 0 375 0 375 98 -7
c119 -8 402 -48 577 -82 459 -89 960 -260 1395 -478 506 -254 919 -542 1343
-939 l119 -110 294 294 295 294 -118 115 c-854 828 -1990 1417 -3183 1649
-250 49 -652 101 -775 101 l-45 0 0 330 c0 308 1 330 18 330 36 0 352 -31 467
-45 1407 -179 2731 -780 3795 -1724 142 -125 414 -397 561 -559 757 -835 1306
-1858 1590 -2957 325 -1264 297 -2602 -82 -3851 -298 -983 -819 -1905 -1507
-2666 -607 -670 -1297 -1195 -2095 -1595 l-192 -95 -115 6 c-643 38 -1223 299
-1681 756 -378 378 -626 847 -718 1363 -11 61 -22 135 -23 163 l-3 51 770 607
c424 334 793 629 822 656 31 30 64 75 85 117 31 64 33 73 33 178 0 108 -1 113
-37 186 -46 93 -112 158 -206 202 l-67 32 -1805 3 c-1224 2 -1821 -1 -1854 -8
-105 -22 -217 -103 -270 -195 -84 -145 -79 -317 15 -458 34 -52 20 -40 974
-792 369 -290 671 -528 672 -529 7 -6 -41 -284 -66 -384 -87 -345 -273 -716
-502 -999 -81 -100 -272 -291 -372 -372 -210 -170 -515 -342 -763 -430 -227
-81 -476 -131 -725 -146 l-116 -8 -199 100 c-982 493 -1822 1194 -2479 2068
-477 635 -811 1272 -1060 2020 -408 1222 -473 2528 -190 3801 252 1133 796
2208 1564 3089 149 171 442 468 611 620 1116 1001 2513 1619 4000 1769 179 18
221 22 273 24 l37 2 0 -330z m459 -12283 c19 -34 62 -105 97 -157 314 -480
770 -898 1262 -1157 50 -26 92 -51 92 -54 0 -15 -496 -96 -760 -123 -512 -53
-1122 -46 -1635 20 -226 28 -585 92 -585 103 0 3 53 35 118 70 525 285 1006
746 1303 1251 35 60 66 109 69 110 3 0 20 -28 39 -63z"
    />
<path
      d="M8587 13417 c-58 -122 -139 -292 -180 -378 l-75 -156 542 -258 c297
-142 543 -260 545 -262 3 -2 -5 -21 -17 -42 -63 -111 -93 -241 -93 -389 1
-329 216 -621 536 -727 109 -37 287 -46 401 -20 241 54 441 213 543 435 19 41
38 69 45 67 6 -3 219 -105 474 -227 255 -122 465 -221 466 -219 7 8 356 742
356 748 0 4 -757 368 -1682 810 -926 443 -1699 812 -1719 822 l-36 18 -106
-222z"
    />
<path
      d="M16108 12817 c-945 -451 -1718 -824 -1718 -828 0 -7 349 -741 355
-747 2 -2 216 98 476 223 260 124 476 222 480 218 3 -5 12 -25 19 -45 18 -57
99 -176 166 -242 151 -151 335 -226 551 -226 367 1 674 247 758 610 27 120 16
313 -27 425 -6 17 -24 58 -41 93 -16 34 -28 64 -26 66 2 1 243 116 534 255
292 139 534 257 539 262 6 5 -35 101 -102 241 -61 128 -142 297 -179 375 l-68
142 -1717 -822z"
    />
<path
      d="M6803 11723 c41 -1419 564 -2803 1475 -3903 156 -188 358 -405 516
-553 191 -180 315 -289 325 -285 13 5 531 626 530 635 0 4 -45 46 -100 93
-123 105 -446 430 -561 566 -201 236 -394 504 -563 784 -108 179 -314 596
-390 790 -238 602 -374 1247 -393 1875 l-7 210 -419 3 -419 2 6 -217z"
    />
<path
      d="M18887 11933 c-4 -3 -7 -61 -7 -127 0 -489 -113 -1142 -286 -1656
-224 -665 -573 -1286 -1035 -1841 -113 -136 -464 -493 -599 -609 -47 -41 -87
-77 -88 -82 -4 -9 519 -638 530 -638 25 0 424 377 591 558 791 860 1317 1858
1571 2983 92 407 156 944 156 1314 l0 105 -413 0 c-228 0 -417 -3 -420 -7z"
    />
</g>
</svg>
